HIERARCHY
ROOT joint_0
{
	OFFSET 0.000000 0.000000 0.000000
	CHANNELS 6 Xposition Yposition Zposition Zrotation Yrotation Xrotation 
	JOINT joint_1
	{
		OFFSET 6.004005 -1.946999 100.587036
		CHANNELS 3 Zrotation Yrotation Xrotation
		JOINT joint_2
		{
			OFFSET -4.601006 -0.824997 91.925903
			CHANNELS 3 Zrotation Yrotation Xrotation
			JOINT joint_3
			{
				OFFSET -5.420998 -1.130005 91.774048
				CHANNELS 3 Zrotation Yrotation Xrotation
				JOINT joint_4
				{
					OFFSET 4.308998 -3.777992 123.473999
					CHANNELS 3 Zrotation Yrotation Xrotation
					JOINT joint_5
					{
						OFFSET 25.565002 -6.305008 79.437988
						CHANNELS 3 Zrotation Yrotation Xrotation
						End Site
						{
							OFFSET 0.000000 0.000000 0.000000
						}
					}
				}
				JOINT joint_6
				{
					OFFSET -1.750000 -28.655998 68.557983
					CHANNELS 3 Zrotation Yrotation Xrotation
					JOINT joint_7
					{
						OFFSET -17.692001 -116.544006 -17.244019
						CHANNELS 3 Zrotation Yrotation Xrotation
						JOINT joint_8
						{
							OFFSET 27.063004 -23.640991 -266.895020
							CHANNELS 3 Zrotation Yrotation Xrotation
							JOINT joint_9
							{
								OFFSET 40.722000 -15.761017 -232.488953
								CHANNELS 3 Zrotation Yrotation Xrotation
								End Site
								{
									OFFSET 0.000000 0.000000 0.000000
								}
							}
						}
					}
				}
				JOINT joint_10
				{
					OFFSET 6.593002 24.457001 69.892944
					CHANNELS 3 Zrotation Yrotation Xrotation
					JOINT joint_11
					{
						OFFSET 24.311996 114.920002 -19.872925
						CHANNELS 3 Zrotation Yrotation Xrotation
						JOINT joint_12
						{
							OFFSET 21.081001 15.319000 -268.037964
							CHANNELS 3 Zrotation Yrotation Xrotation
							JOINT joint_13
							{
								OFFSET 27.794006 -8.947001 -234.744080
								CHANNELS 3 Zrotation Yrotation Xrotation
								End Site
								{
									OFFSET 0.000000 0.000000 0.000000
								}
							}
						}
					}
				}
			}
		}
	}
	JOINT joint_14
	{
		OFFSET -6.627998 -80.520004 -98.790039
		CHANNELS 3 Zrotation Yrotation Xrotation
		JOINT joint_15
		{
			OFFSET -43.638000 -13.751999 -502.538971
			CHANNELS 3 Zrotation Yrotation Xrotation
			JOINT joint_16
			{
				OFFSET -39.532999 -9.912994 -398.071007
				CHANNELS 3 Zrotation Yrotation Xrotation
				JOINT joint_17
				{
					OFFSET 174.940004 -34.660995 -75.688002
					CHANNELS 3 Zrotation Yrotation Xrotation
					End Site
					{
						OFFSET 0.000000 0.000000 0.000000
					}
				}
			}
		}
	}
	JOINT joint_18
	{
		OFFSET 12.591003 79.842003 -98.765015
		CHANNELS 3 Zrotation Yrotation Xrotation
		JOINT joint_19
		{
			OFFSET -39.080002 -1.297001 -503.101013
			CHANNELS 3 Zrotation Yrotation Xrotation
			JOINT joint_20
			{
				OFFSET -51.570000 -0.514000 -396.815987
				CHANNELS 3 Zrotation Yrotation Xrotation
				JOINT joint_21
				{
					OFFSET 178.987999 -11.521999 -73.244003
					CHANNELS 3 Zrotation Yrotation Xrotation
					End Site
					{
						OFFSET 0.000000 0.000000 0.000000
					}
				}
			}
		}
	}
}
MOTION
Frames: 10
Frame Time: 0.016667
-1300.132812 888.977051 1096.703979 -10.753700 -1.426693 0.081400 0.760947 1.960112 0.398828 0.754610 -0.333806 -0.040066 0.772001 0.383879 0.047628 0.223690 -1.098440 -0.963434 0.000000 0.000000 0.000000 0.423773 0.415518 1.066668 0.270681 0.272883 2.213213 -0.710498 6.181393 -2.102700 0.000000 0.000000 0.000000 2.904823 0.056180 0.661566 -0.157757 0.451343 -3.695100 0.739228 2.623722 6.333549 0.000000 0.000000 0.000000 1.443181 -0.142817 -2.673649 1.205388 -0.971530 -0.057463 0.994678 3.076985 1.036720 0.000000 0.000000 0.000000 -1.579032 -1.509436 4.271270 -1.334280 1.016147 0.023465 -1.276370 0.435528 -0.493483 0.000000 0.000000 0.000000 
-1300.121460 888.985535 1096.699951 -10.749677 -1.424252 0.083844 0.760568 1.981409 0.400293 0.754163 -0.337325 -0.039590 0.771657 0.388438 0.047716 0.223699 -1.088849 -0.961313 0.000000 0.000000 0.000000 0.415372 0.413025 1.072966 0.269931 0.271508 2.205058 -0.709955 6.177402 -2.100331 0.000000 0.000000 0.000000 2.901055 0.047864 0.646296 -0.157600 0.439337 -3.689981 0.738344 2.613066 6.325138 0.000000 0.000000 0.000000 1.441717 -0.137200 -2.677321 1.204166 -0.986254 -0.057424 0.992988 3.079289 1.036445 0.000000 0.000000 0.000000 -1.580684 -1.508813 4.268250 -1.336040 1.007969 0.023480 -1.278002 0.442445 -0.493709 0.000000 0.000000 0.000000 
-1300.109619 888.990906 1096.696045 -10.746704 -1.420376 0.086518 0.760521 2.002200 0.401194 0.754065 -0.340868 -0.039071 0.771631 0.393115 0.047324 0.223821 -1.077999 -0.959249 0.000000 0.000000 0.000000 0.405975 0.410597 1.079373 0.269269 0.269900 2.197958 -0.709437 6.172711 -2.098333 0.000000 0.000000 0.000000 2.899282 0.040346 0.631852 -0.157599 0.428546 -3.687750 0.737474 2.602351 6.317063 0.000000 0.000000 0.000000 1.440541 -0.133732 -2.681244 1.203078 -1.000158 -0.057122 0.991435 3.082522 1.036412 0.000000 0.000000 0.000000 -1.581920 -1.510119 4.265523 -1.337375 1.000969 0.022808 -1.279324 0.448264 -0.493878 0.000000 0.000000 0.000000 
-1300.097168 888.986023 1096.694946 -10.744524 -1.411196 0.089504 0.760757 2.016847 0.399834 0.754312 -0.342942 -0.038603 0.771893 0.395586 0.046939 0.223302 -1.064230 -0.954513 0.000000 0.000000 0.000000 0.395179 0.409357 1.086128 0.268735 0.268999 2.192923 -0.708719 6.165857 -2.095742 0.000000 0.000000 0.000000 2.899236 0.035552 0.620207 -0.157546 0.421498 -3.688874 0.736514 2.589375 6.308113 0.000000 0.000000 0.000000 1.440030 -0.137191 -2.684995 1.202388 -1.012017 -0.057219 0.990213 3.087357 1.036838 0.000000 0.000000 0.000000 -1.582848 -1.516931 4.264170 -1.338319 0.993976 0.020041 -1.280539 0.453463 -0.494043 0.000000 0.000000 0.000000 
-1300.083740 888.973999 1096.696045 -10.743364 -1.398165 0.092870 0.761289 2.027811 0.396852 0.754863 -0.346561 -0.038481 0.772564 0.399672 0.047110 0.222750 -1.047300 -0.948924 0.000000 0.000000 0.000000 0.383321 0.408249 1.093459 0.268282 0.268038 2.188637 -0.707890 6.158175 -2.092705 0.000000 0.000000 0.000000 2.899999 0.032181 0.609898 -0.157539 0.416611 -3.692824 0.735455 2.575086 6.298292 0.000000 0.000000 0.000000 1.440033 -0.145895 -2.688764 1.201988 -1.022098 -0.057628 0.989227 3.093645 1.037653 0.000000 0.000000 0.000000 -1.583413 -1.528064 4.263747 -1.338835 0.987847 0.015458 -1.281584 0.458110 -0.494174 0.000000 0.000000 0.000000 
-1300.070312 888.961975 1096.697998 -10.744354 -1.384492 0.095770 0.762878 2.039920 0.394784 0.756408 -0.349751 -0.038802 0.774262 0.402995 0.047700 0.222080 -1.033204 -0.943641 0.000000 0.000000 0.000000 0.369514 0.406804 1.100243 0.267839 0.266396 2.184178 -0.706964 6.149548 -2.089344 0.000000 0.000000 0.000000 2.899272 0.030113 0.599736 -0.157560 0.413831 -3.699209 0.734571 2.561520 6.289774 0.000000 0.000000 0.000000 1.440704 -0.156050 -2.692326 1.202148 -1.031253 -0.057477 0.988849 3.100133 1.038769 0.000000 0.000000 0.000000 -1.583085 -1.540115 4.263530 -1.338537 0.982984 0.011536 -1.281778 0.461724 -0.494023 0.000000 0.000000 0.000000 
-1300.057861 888.957153 1096.699951 -10.748893 -1.372285 0.096990 0.765073 2.056460 0.395564 0.758529 -0.352118 -0.037550 0.776379 0.405899 0.047692 0.222180 -1.024211 -0.941934 0.000000 0.000000 0.000000 0.358500 0.403715 1.105119 0.267259 0.263534 2.177808 -0.705768 6.139320 -2.084683 0.000000 0.000000 0.000000 2.898253 0.029399 0.588870 -0.157632 0.412982 -3.708831 0.734042 2.549451 6.283810 0.000000 0.000000 0.000000 1.442511 -0.165847 -2.694788 1.203481 -1.038969 -0.056729 0.989730 3.105801 1.040266 0.000000 0.000000 0.000000 -1.581500 -1.550764 4.263477 -1.337165 0.979747 0.010242 -1.280612 0.462916 -0.493472 0.000000 0.000000 0.000000 
-1300.046753 888.957520 1096.702026 -10.756340 -1.360766 0.096945 0.768480 2.077046 0.400135 0.761622 -0.355722 -0.037632 0.779552 0.409533 0.047051 0.222181 -1.019493 -0.940928 0.000000 0.000000 0.000000 0.346164 0.399416 1.109291 0.266676 0.259308 2.170428 -0.704237 6.127369 -2.078398 0.000000 0.000000 0.000000 2.894620 0.029840 0.578932 -0.157679 0.414701 -3.722041 0.733771 2.537257 6.279423 0.000000 0.000000 0.000000 1.445234 -0.176171 -2.696637 1.205656 -1.045213 -0.055136 0.991566 3.110935 1.042067 0.000000 0.000000 0.000000 -1.578830 -1.561189 4.263571 -1.334867 0.978630 0.010938 -1.278317 0.461973 -0.492597 0.000000 0.000000 0.000000 
-1300.028076 888.953796 1096.703979 -10.765557 -1.347469 0.097373 0.771405 2.095950 0.403623 0.764273 -0.358937 -0.037435 0.782339 0.413884 0.047683 0.222381 -1.019534 -0.941670 0.000000 0.000000 0.000000 0.337112 0.393969 1.113744 0.266017 0.254643 2.161936 -0.703093 6.118004 -2.073785 0.000000 0.000000 0.000000 2.892519 0.031542 0.568243 -0.157827 0.417198 -3.735041 0.733730 2.529059 6.277197 0.000000 0.000000 0.000000 1.448600 -0.188179 -2.698851 1.208373 -1.051292 -0.053586 0.993930 3.115820 1.044048 0.000000 0.000000 0.000000 -1.575508 -1.572668 4.263582 -1.331913 0.977022 0.010995 -1.275476 0.461081 -0.491496 0.000000 0.000000 0.000000 
-1299.996094 888.944153 1096.703003 -10.775193 -1.331750 0.098770 0.773259 2.112299 0.408073 0.765668 -0.361119 -0.039846 0.784012 0.416197 0.048780 0.221689 -1.024314 -0.940778 0.000000 0.000000 0.000000 0.331198 0.388311 1.119471 0.265297 0.250448 2.153390 -0.702735 6.112884 -2.072922 0.000000 0.000000 0.000000 2.890933 0.035342 0.558200 -0.158050 0.421410 -3.746008 0.733944 2.527469 6.277566 0.000000 0.000000 0.000000 1.452345 -0.201272 -2.701881 1.211413 -1.058788 -0.052372 0.996570 3.119738 1.045956 0.000000 0.000000 0.000000 -1.572130 -1.585302 4.263656 -1.328786 0.973915 0.009221 -1.272696 0.461085 -0.490363 0.000000 0.000000 0.000000 
